<?xml version="1.0" encoding="UTF-8"?>
<svg width="61px" height="54px" viewBox="0 0 61 54" version="1.1" xmlns="http://www.w3.org/2000/svg" xmlns:xlink="http://www.w3.org/1999/xlink">
    <!-- Generator: Sketch 52.6 (67491) - http://www.bohemiancoding.com/sketch -->
    <title>合并形状</title>
    <desc>Created with Sketch.</desc>
    <g id="1.8修改" stroke="none" stroke-width="1" fill="none" fill-rule="evenodd">
        <g id="05_点餐服务_购物车" transform="translate(-63.000000, -1222.000000)" fill="#FFFFFF" fill-rule="nonzero">
            <g id="分组-6" transform="translate(0.000000, 1177.000000)">
                <path d="M65.3966854,49.8 C64.0730326,49.8 63,48.7254834 63,47.4 C63,46.0745166 64.0730326,45 65.3966854,45 L70.1757793,45 C73.5520271,45 76.4735092,47.3523799 77.1982358,50.654488 L82.7303382,75.8606827 C83.6966404,80.2634935 87.5919499,83.4 92.0936136,83.4 L120.125697,83.4 C121.44935,83.4 122.522383,84.4745166 122.522383,85.8 C122.522383,87.1254834 121.44935,88.2 120.125697,88.2 L92.0936136,88.2 C85.341118,88.2 79.4981538,83.4952402 78.0487005,76.8910241 L72.5165981,51.6848293 C72.2750226,50.5841266 71.3011952,49.8 70.1757793,49.8 L65.3966854,49.8 Z M92.3635398,99 C90.3780606,99 88.7685117,97.3882251 88.7685117,95.4 C88.7685117,93.4117749 90.3780606,91.8 92.3635398,91.8 C94.3490191,91.8 95.958568,93.4117749 95.958568,95.4 C95.958568,97.3882251 94.3490191,99 92.3635398,99 Z M112.330394,99 C110.344915,99 108.735366,97.3882251 108.735366,95.4 C108.735366,93.4117749 110.344915,91.8 112.330394,91.8 C114.315873,91.8 115.925422,93.4117749 115.925422,95.4 C115.925422,97.3882251 114.315873,99 112.330394,99 Z M83.4654924,60.7175648 C83.0680497,57 86.4796261,53.4 90.1977485,53.4 L118.007306,53.4 C118.350055,53.4 118.692173,53.4294505 119.029894,53.4880274 C122.290477,54.053568 124.475873,57.7349077 123.911114,61 L121.592499,73.8288023 C120.995591,77.2797606 118.005435,79.8 114.50793,79.8 L93.5150765,79.8 C90.1621863,79.8 87.2543764,77.4793577 86.5062761,74.2064713 L83.4654924,60.7175648 Z" id="合并形状"></path>
            </g>
        </g>
    </g>
</svg>