<?xml version="1.0" encoding="UTF-8"?>
<svg width="28px" height="28px" viewBox="0 0 28 28" version="1.1" xmlns="http://www.w3.org/2000/svg" xmlns:xlink="http://www.w3.org/1999/xlink">
    <!-- Generator: Sketch 52.6 (67491) - http://www.bohemiancoding.com/sketch -->
    <title>qingkong</title>
    <desc>Created with Sketch.</desc>
    <g id="1.8修改" stroke="none" stroke-width="1" fill="none" fill-rule="evenodd">
        <g id="05_点餐服务_购物车" transform="translate(-623.000000, -532.000000)" fill="#999999" fill-rule="nonzero">
            <g id="Group-2" transform="translate(0.000000, 496.000000)">
                <g id="分组-8">
                    <g id="分组-9">
                        <g id="分组-11" transform="translate(622.000000, 35.000000)">
                            <g id="分组-7">
                                <path d="M24,9 L6,9 L6,24 C6,25.6568542 7.34314575,27 9,27 L21,27 C22.6568542,27 24,25.6568542 24,24 L24,9 Z M6,7 L8,7 L8,6 C8,3.23857625 10.2385763,1 13,1 L17,1 C19.7614237,1 22,3.23857625 22,6 L22,7 L24,7 L28,7 C28.5522847,7 29,7.44771525 29,8 C29,8.55228475 28.5522847,9 28,9 L26,9 L26,24 C26,26.7614237 23.7614237,29 21,29 L9,29 C6.23857625,29 4,26.7614237 4,24 L4,9 L2,9 C1.44771525,9 1,8.55228475 1,8 C1,7.44771525 1.44771525,7 2,7 L6,7 Z M10,7 L20,7 L20,6 C20,4.34314575 18.6568542,3 17,3 L13,3 C11.3431458,3 10,4.34314575 10,6 L10,7 Z" id="qingkong"></path>
                            </g>
                        </g>
                    </g>
                </g>
            </g>
        </g>
    </g>
</svg>